<svg xmlns="http://www.w3.org/2000/svg" width="24" height="24" fill="#a00" viewBox="0 -960 960 960">
    <path d="M480-377.795 122.281-20.076Q102.205 0 71.18 0 40.152 0 20.076-20.076T0-71.179t20.076-51.102L377.795-480 20.076-837.719Q0-857.795 0-888.82q0-31.027 20.076-51.103T71.179-960t51.102 20.076L480-582.205l357.719-357.719Q857.795-960 888.82-960q31.027 0 51.103 20.076T960-888.82t-20.076 51.102L582.205-480l357.719 357.719Q960-102.205 960-71.18q0 31.027-20.076 51.103T888.821 0 837.72-20.076Z"/>
</svg>
